<svg width="143" height="83" viewBox="0 0 143 83" fill="none" xmlns="http://www.w3.org/2000/svg">
<path d="M4.06651 38.5977L5.91406 42.0396L7.7665 38.5977H8.83691L6.38328 42.8918V45.4532H5.43996V42.8918L2.98633 38.5977H4.06651Z" fill="white"/>
<path d="M14.2865 39.205L11.9306 45.4532H10.9678L13.6804 38.5977H14.3012L14.2865 39.205ZM16.2611 45.4532L13.9004 39.205L13.8857 38.5977H14.5065L17.2289 45.4532H16.2611ZM16.139 42.9154V43.6593H12.1408V42.9154H16.139Z" fill="white"/>
<path d="M21.4716 38.5977V45.4532H20.5283V38.5977H21.4716ZM25.7678 38.5977L22.8108 41.7947L21.1489 43.4569L20.9925 42.4869L22.2438 41.1591L24.6339 38.5977H25.7678ZM24.8587 45.4532L22.2243 42.1102L22.7865 41.3899L25.9829 45.4532H24.8587Z" fill="white"/>
<path d="M34.491 41.8054V42.2386C34.491 42.7533 34.4241 43.2148 34.2906 43.6229C34.1571 44.031 33.9647 44.3778 33.7138 44.6635C33.463 44.9492 33.1616 45.1674 32.8097 45.3181C32.4609 45.4687 32.07 45.544 31.6365 45.544C31.2163 45.544 30.8302 45.4687 30.4782 45.3181C30.1295 45.1674 29.8265 44.9492 29.5691 44.6635C29.3149 44.3778 29.1178 44.031 28.9776 43.6229C28.8375 43.2148 28.7676 42.7533 28.7676 42.2386V41.8054C28.7676 41.2907 28.8359 40.8307 28.9728 40.4257C29.1129 40.0178 29.3101 39.6708 29.5643 39.3853C29.8183 39.0963 30.1198 38.8766 30.4684 38.7259C30.8203 38.5753 31.2064 38.5 31.6269 38.5C32.0602 38.5 32.4513 38.5753 32.7998 38.7259C33.1518 38.8766 33.4532 39.0963 33.7041 39.3853C33.9583 39.6708 34.1521 40.0178 34.2858 40.4257C34.4225 40.8307 34.491 41.2907 34.491 41.8054ZM33.5574 42.2386V41.7961C33.5574 41.388 33.5134 41.0269 33.4254 40.7129C33.3407 40.3992 33.2152 40.1354 33.0492 39.922C32.8829 39.7085 32.6793 39.5468 32.4382 39.4369C32.2003 39.3271 31.9298 39.2721 31.6269 39.2721C31.3335 39.2721 31.0679 39.3271 30.8302 39.4369C30.5955 39.5468 30.3935 39.7085 30.224 39.922C30.0578 40.1354 29.9291 40.3992 29.8379 40.7129C29.7466 41.0269 29.701 41.388 29.701 41.7961V42.2386C29.701 42.6498 29.7466 43.0139 29.8379 43.331C29.9291 43.6448 30.0594 43.9102 30.2289 44.1268C30.4015 44.3401 30.6053 44.5018 30.8398 44.6117C31.0777 44.7216 31.3434 44.7765 31.6365 44.7765C31.9429 44.7765 32.215 44.7216 32.4529 44.6117C32.6906 44.5018 32.8912 44.3401 33.054 44.1268C33.2202 43.9102 33.3457 43.6448 33.4303 43.331C33.515 43.0139 33.5574 42.6498 33.5574 42.2386Z" fill="white"/>
<path d="M40.4501 44.4126L42.547 38.5977H43.5686L40.934 45.4532H40.2058L40.4501 44.4126ZM38.4903 38.5977L40.5676 44.4126L40.8266 45.4532H40.0983L37.4688 38.5977H38.4903Z" fill="white"/>
<path d="M56.8365 42.0361V44.5457C56.7486 44.6713 56.6084 44.8126 56.4163 44.9695C56.2239 45.1233 55.9583 45.2583 55.6196 45.3745C55.2839 45.4875 54.8506 45.544 54.3194 45.544C53.8861 45.544 53.4869 45.4718 53.1219 45.3274C52.7603 45.18 52.4457 44.9664 52.1787 44.6871C51.9146 44.4045 51.7094 44.0624 51.5627 43.6606C51.4193 43.2556 51.3477 42.7974 51.3477 42.2856V41.7535C51.3477 41.2419 51.4097 40.7853 51.5334 40.3833C51.6605 39.9816 51.8462 39.641 52.0905 39.3617C52.3351 39.0791 52.6348 38.8657 52.99 38.7213C53.3452 38.5737 53.7524 38.5 54.2119 38.5C54.7561 38.5 55.2106 38.5911 55.5756 38.7731C55.9437 38.952 56.2306 39.2 56.4358 39.517C56.6444 39.834 56.7779 40.1951 56.8365 40.6H55.8933C55.8509 40.352 55.7662 40.1261 55.6391 39.922C55.5152 39.718 55.3377 39.5547 55.1064 39.4323C54.8749 39.3068 54.5768 39.2439 54.2119 39.2439C53.8829 39.2439 53.5976 39.3019 53.3566 39.4182C53.1155 39.5342 52.9167 39.7007 52.7603 39.9172C52.6039 40.1338 52.4865 40.3959 52.4084 40.7036C52.3335 41.0112 52.2959 41.3582 52.2959 41.7442V42.2856C52.2959 42.6812 52.3431 43.0343 52.4377 43.3452C52.5354 43.6558 52.6738 43.9212 52.8531 44.1409C53.0324 44.3575 53.2458 44.5223 53.4934 44.6353C53.7443 44.7482 54.0212 44.8047 54.3244 44.8047C54.6599 44.8047 54.9319 44.778 55.1405 44.7247C55.3491 44.6682 55.512 44.6022 55.6292 44.527C55.7467 44.4484 55.8362 44.3747 55.8981 44.3057V42.7707H54.2509V42.0361H56.8365Z" fill="white"/>
<path d="M65.4723 44.714V45.4532H61.7039V44.714H65.4723ZM61.8946 38.5977V45.4532H60.9512V38.5977H61.8946ZM64.9738 41.5452V42.2844H61.7039V41.5452H64.9738ZM65.4235 38.5977V39.3416H61.7039V38.5977H65.4235Z" fill="white"/>
<path d="M69.7061 38.5977H72.062C72.5964 38.5977 73.0476 38.676 73.4158 38.8331C73.7873 38.9899 74.0692 39.2222 74.2615 39.5299C74.4569 39.8344 74.5546 40.2094 74.5546 40.6553C74.5546 40.9692 74.488 41.2564 74.3543 41.5169C74.224 41.7744 74.035 41.9941 73.7873 42.1761C73.5429 42.355 73.2498 42.4885 72.9076 42.5763L72.6436 42.6752H70.4295L70.4198 41.9359H72.0913C72.4302 41.9359 72.7121 41.8794 72.937 41.7665C73.1617 41.6504 73.3311 41.4949 73.4451 41.3003C73.5592 41.1057 73.6162 40.8907 73.6162 40.6553C73.6162 40.3916 73.5626 40.1609 73.455 39.963C73.3474 39.7653 73.1781 39.6131 72.9466 39.5063C72.7185 39.3965 72.4236 39.3416 72.062 39.3416H70.6495V45.4532H69.7061V38.5977ZM73.8656 45.4532L72.1353 42.3456L73.1177 42.3409L74.8725 45.3968V45.4532H73.8656Z" fill="white"/>
<path d="M82.2113 43.7171C82.2113 43.557 82.1852 43.4158 82.133 43.2933C82.0842 43.1678 81.9962 43.0547 81.8691 42.9543C81.7452 42.8539 81.5726 42.7581 81.3509 42.667C81.1327 42.576 80.8558 42.4835 80.5201 42.3893C80.1681 42.2887 79.8505 42.1773 79.567 42.0549C79.2835 41.9293 79.0408 41.7866 78.8388 41.6264C78.6368 41.4663 78.482 41.2827 78.3744 41.0756C78.267 40.8684 78.2132 40.6313 78.2132 40.3646C78.2132 40.0978 78.2702 39.8514 78.3842 39.6253C78.4983 39.3994 78.6611 39.2031 78.8729 39.0367C79.088 38.8673 79.3437 38.7354 79.6403 38.6412C79.9368 38.547 80.2675 38.5 80.6325 38.5C81.167 38.5 81.6198 38.5988 81.9912 38.7967C82.366 38.9913 82.6512 39.247 82.8467 39.5642C83.0421 39.8779 83.1399 40.2139 83.1399 40.5717H82.2014C82.2014 40.3143 82.1444 40.0868 82.0304 39.889C81.9163 39.6882 81.7436 39.5311 81.5123 39.4182C81.281 39.3019 80.9877 39.2439 80.6325 39.2439C80.2968 39.2439 80.02 39.2926 79.8015 39.3899C79.5833 39.4872 79.4204 39.6191 79.3128 39.7855C79.2086 39.9518 79.1564 40.1417 79.1564 40.3551C79.1564 40.4996 79.1873 40.6313 79.2494 40.7506C79.3144 40.8669 79.4138 40.9752 79.5475 41.0756C79.6843 41.176 79.8569 41.2686 80.0655 41.3533C80.2774 41.4381 80.5299 41.5197 80.8231 41.5982C81.2272 41.7081 81.5758 41.8305 81.8691 41.9655C82.1625 42.1005 82.4034 42.2527 82.5925 42.4222C82.7847 42.5885 82.9264 42.7785 83.0178 42.992C83.1122 43.2022 83.1595 43.4409 83.1595 43.7076C83.1595 43.987 83.1009 44.2397 82.9835 44.4657C82.8662 44.6918 82.6983 44.8848 82.4801 45.0449C82.2618 45.2049 81.9994 45.3289 81.6932 45.4169C81.3901 45.5016 81.0512 45.544 80.6765 45.544C80.3474 45.544 80.0232 45.5001 79.7039 45.4123C79.3877 45.3243 79.0994 45.1923 78.8388 45.0167C78.5814 44.8409 78.3744 44.6243 78.218 44.3668C78.0648 44.1063 77.9883 43.8049 77.9883 43.4628H78.9267C78.9267 43.6982 78.9739 43.9007 79.0685 44.0703C79.163 44.2366 79.2917 44.3747 79.4546 44.4846C79.6208 44.5945 79.8081 44.6761 80.0167 44.7295C80.2286 44.7796 80.4484 44.8047 80.6765 44.8047C81.0056 44.8047 81.2843 44.7608 81.5123 44.673C81.7404 44.585 81.9131 44.4595 82.0304 44.2962C82.151 44.133 82.2113 43.9399 82.2113 43.7171Z" fill="white"/>
<path d="M91.5633 41.5452V42.2844H87.7117V41.5452H91.5633ZM87.8585 38.5977V45.4532H86.915V38.5977H87.8585ZM92.3844 38.5977V45.4532H91.446V38.5977H92.3844Z" fill="white"/>
<path d="M97.5585 38.5977V45.4532H96.6152V38.5977H97.5585ZM101.855 38.5977L98.8977 41.7947L97.2359 43.4569L97.0794 42.4869L98.3307 41.1591L100.721 38.5977H101.855ZM100.946 45.4532L98.3112 42.1102L98.8734 41.3899L102.07 45.4532H100.946Z" fill="white"/>
<path d="M110.771 41.8054V42.2386C110.771 42.7533 110.704 43.2148 110.571 43.6229C110.437 44.031 110.245 44.3778 109.994 44.6635C109.743 44.9492 109.442 45.1674 109.09 45.3181C108.741 45.4687 108.35 45.544 107.917 45.544C107.497 45.544 107.11 45.4687 106.758 45.3181C106.41 45.1674 106.107 44.9492 105.849 44.6635C105.595 44.3778 105.398 44.031 105.258 43.6229C105.118 43.2148 105.048 42.7533 105.048 42.2386V41.8054C105.048 41.2907 105.116 40.8307 105.253 40.4257C105.393 40.0178 105.59 39.6708 105.845 39.3853C106.099 39.0963 106.4 38.8766 106.749 38.7259C107.101 38.5753 107.487 38.5 107.907 38.5C108.34 38.5 108.732 38.5753 109.08 38.7259C109.432 38.8766 109.733 39.0963 109.984 39.3853C110.239 39.6708 110.432 40.0178 110.566 40.4257C110.703 40.8307 110.771 41.2907 110.771 41.8054ZM109.838 42.2386V41.7961C109.838 41.388 109.794 41.0269 109.706 40.7129C109.621 40.3992 109.496 40.1354 109.329 39.922C109.163 39.7085 108.96 39.5468 108.718 39.4369C108.481 39.3271 108.21 39.2721 107.907 39.2721C107.614 39.2721 107.348 39.3271 107.11 39.4369C106.876 39.5468 106.674 39.7085 106.504 39.922C106.338 40.1354 106.209 40.3992 106.118 40.7129C106.027 41.0269 105.981 41.388 105.981 41.7961V42.2386C105.981 42.6498 106.027 43.0139 106.118 43.331C106.209 43.6448 106.34 43.9102 106.509 44.1268C106.682 44.3401 106.886 44.5018 107.12 44.6117C107.358 44.7216 107.624 44.7765 107.917 44.7765C108.223 44.7765 108.495 44.7216 108.733 44.6117C108.971 44.5018 109.171 44.3401 109.334 44.1268C109.501 43.9102 109.626 43.6448 109.711 43.331C109.795 43.0139 109.838 42.6498 109.838 42.2386Z" fill="white"/>
<path d="M117.042 44.4126L119.139 38.5977H120.16L117.526 45.4532H116.798L117.042 44.4126ZM115.082 38.5977L117.159 44.4126L117.419 45.4532H116.69L114.061 38.5977H115.082Z" fill="white"/>
<path d="M124.178 38.5977V45.4532H123.234V38.5977H124.178Z" fill="white"/>
<path d="M132.733 43.2697H133.671C133.623 43.703 133.494 44.0906 133.285 44.4328C133.077 44.7749 132.782 45.0465 132.401 45.2473C132.019 45.4451 131.544 45.544 130.973 45.544C130.556 45.544 130.177 45.4687 129.835 45.3181C129.496 45.1674 129.204 44.9539 128.96 44.6776C128.715 44.3982 128.526 44.0639 128.393 43.6748C128.262 43.2823 128.197 42.846 128.197 42.3657V41.6829C128.197 41.2027 128.262 40.7679 128.393 40.3787C128.526 39.9862 128.717 39.6505 128.965 39.371C129.215 39.0917 129.517 38.8766 129.869 38.7259C130.221 38.5753 130.617 38.5 131.057 38.5C131.594 38.5 132.049 38.5973 132.42 38.7919C132.792 38.9865 133.08 39.2565 133.285 39.6017C133.494 39.9439 133.623 40.341 133.671 40.793H132.733C132.687 40.4729 132.603 40.1982 132.479 39.969C132.355 39.7367 132.179 39.5578 131.951 39.4323C131.723 39.3068 131.425 39.2439 131.057 39.2439C130.741 39.2439 130.462 39.3019 130.221 39.4182C129.983 39.5342 129.782 39.699 129.62 39.9125C129.46 40.1261 129.339 40.3818 129.258 40.68C129.176 40.9783 129.136 41.3094 129.136 41.6736V42.3657C129.136 42.7017 129.171 43.0171 129.243 43.3121C129.318 43.6073 129.43 43.8662 129.58 44.0891C129.73 44.3119 129.921 44.4877 130.152 44.6163C130.384 44.742 130.657 44.8047 130.973 44.8047C131.374 44.8047 131.694 44.7436 131.931 44.6212C132.169 44.4987 132.349 44.3229 132.469 44.0937C132.593 43.8647 132.681 43.5899 132.733 43.2697Z" fill="white"/>
<path d="M142.17 41.5452V42.2844H138.318V41.5452H142.17ZM138.465 38.5977V45.4532H137.521V38.5977H138.465ZM142.991 38.5977V45.4532H142.052V38.5977H142.991Z" fill="white"/>
<path d="M1.46883 1.46094H0.118164V3.94992L1.22681 3.99333C3.22629 4.92343 4.20439 5.80466 5.63786 8.15962L19.3943 32.2909H30.7399L19.5902 11.8231C18.4878 9.97682 18.3005 8.14202 18.52 7.41026C19.4851 4.19435 23.4492 3.93845 26.689 3.93845V1.48668H25.142L24.9207 1.69751H1.66529L1.46883 1.46094Z" fill="white"/>
<path d="M55.3886 16.9526L47.4353 32.1946H50.3081L60.9139 11.9071C63.5018 7.2028 65.2314 5.27146 69.1032 3.82203V1.55712H67.8153L67.632 1.73356H48.5196L48.1517 1.51953H46.9326V3.86363H47.8101L48.5196 4.01508L50.91 4.10531C58.6132 5.47628 58.3079 9.53826 55.3886 16.9526Z" fill="white"/>
<path d="M107.514 2.34076C94.7579 3.50414 87.1347 16.9557 85.1724 32.0796H74.0781C76.8936 14.7041 89.7706 0.0429688 110.122 0.0429688H111.381C119.721 0.209173 124.551 2.08495 133.42 8.35461C133.84 8.48171 134.098 8.48171 134.343 8.48171C135.722 8.48171 136.971 4.79247 136.793 1.50602H139.792V4.60248L139.341 5.20838V14.1795L139.16 14.5676V27.46H136.478C135.498 12.5511 127.299 4.05638 113.948 2.22415C111.322 2.09039 109.941 2.16049 107.514 2.34076Z" fill="white"/>
<path d="M30.4786 72.9826V54.1445H41.4646V72.9826C42.0641 77.2568 43.6251 78.6237 48.899 78.971H50.867V81.3825H46.8242L46.1262 81.1235H25.817L25.1188 81.3825H21.0762V78.971H23.044C28.318 78.6237 29.8791 77.2568 30.4786 72.9826Z" fill="white"/>
<path d="M85.5331 54.1289H74.3037C76.6898 70.3201 87.9672 81.3254 108.121 82.8999H112.81C120.449 82.4905 124.6 80.6672 131.837 75.4101C132.461 74.9225 132.822 74.8118 133.481 74.8376C135.489 75.2323 136.362 77.3966 136.661 81.3254H138.927V56.2199L139.233 55.9895V54.2224H127.42V55.6394L127.722 55.9418L128.087 59.8437V71.9531C127.724 78.0766 117.856 81.1676 110.834 80.526C94.1855 80.1761 87.5357 68.9699 85.5331 54.1289Z" fill="white"/>
</svg>
