<svg width="20" height="21" viewBox="0 0 20 21" fill="none" xmlns="http://www.w3.org/2000/svg">
<path d="M0 7.04375C0 4.55223 0 3.30647 0.469111 2.35824C0.864425 1.55917 1.48493 0.907647 2.24594 0.492566C3.14902 0 4.33546 0 6.70833 0H13.2917C15.6645 0 16.851 0 17.7541 0.492566C18.5151 0.907647 19.1356 1.55917 19.5309 2.35824C20 3.30647 20 4.55223 20 7.04375V13.9563C20 16.4478 20 17.6935 19.5309 18.6418C19.1356 19.4408 18.5151 20.0924 17.7541 20.5074C16.851 21 15.6645 21 13.2917 21H6.70833C4.33546 21 3.14902 21 2.24594 20.5074C1.48493 20.0924 0.864425 19.4408 0.469111 18.6418C0 17.6935 0 16.4478 0 13.9563V7.04375Z" fill="black"/>
<path d="M13.8889 13.4168L14.3333 10.5002H11.6666V8.4585C11.6666 7.64183 11.9444 7.00016 13.1666 7.00016H14.4444V4.31683C13.7222 4.20016 12.9444 4.0835 12.2222 4.0835C9.94442 4.0835 8.33331 5.54183 8.33331 8.16683V10.5002H5.83331V13.4168H8.33331V21.0002C9.44442 21.0002 10.5555 21.0002 11.6666 21.0002V13.4168H13.8889Z" fill="#FAFAFA"/>
</svg>
