<svg width="22" height="21" viewBox="0 0 22 21" fill="none" xmlns="http://www.w3.org/2000/svg">
<path d="M0 7.04375C0 4.55223 0 3.30647 0.516022 2.35824C0.950868 1.55917 1.63342 0.907647 2.47053 0.492566C3.46392 0 4.769 0 7.37917 0H14.6208C17.231 0 18.5361 0 19.5295 0.492566C20.3666 0.907647 21.0491 1.55917 21.484 2.35824C22 3.30647 22 4.55223 22 7.04375V13.9562C22 16.4478 22 17.6935 21.484 18.6418C21.0491 19.4408 20.3666 20.0924 19.5295 20.5074C18.5361 21 17.231 21 14.6208 21H7.37917C4.769 21 3.46392 21 2.47053 20.5074C1.63342 20.0924 0.950868 19.4408 0.516022 18.6418C0 17.6935 0 16.4478 0 13.9562V7.04375Z" fill="black"/>
<path d="M4.93797 6.52191C5.99201 6.52191 6.84647 5.70629 6.84647 4.70016C6.84647 3.69404 5.99201 2.87842 4.93797 2.87842C3.88394 2.87842 3.02948 3.69404 3.02948 4.70016C3.02948 5.70629 3.88394 6.52191 4.93797 6.52191Z" fill="#FAFAFA"/>
<path d="M8.59433 7.86823H11.7573V9.25136C11.7573 9.25136 12.6156 7.61274 14.951 7.61274C17.0343 7.61274 18.76 8.59235 18.76 11.5783V17.8748H15.4822V12.3412C15.4822 10.5798 14.4971 10.3861 13.7464 10.3861C12.1884 10.3861 11.9217 11.6689 11.9217 12.571V17.8748H8.59433V7.86823Z" fill="#FAFAFA"/>
<path d="M3.27429 7.86824H6.60166V17.8748H3.27429V7.86824Z" fill="#FAFAFA"/>
</svg>
