<svg width="22" height="21" viewBox="0 0 22 21" fill="none" xmlns="http://www.w3.org/2000/svg">
<g clip-path="url(#clip0_2_8287)">
<path d="M0.0125732 7.04375C0.0125732 4.55223 0.0125732 3.30647 0.528595 2.35824C0.963441 1.55917 1.64599 0.907647 2.48311 0.492566C3.47649 0 4.78157 0 7.39174 0H14.6334C17.2436 0 18.5487 0 19.542 0.492566C20.3792 0.907647 21.0617 1.55917 21.4966 2.35824C22.0126 3.30647 22.0126 4.55223 22.0126 7.04375V13.9563C22.0126 16.4478 22.0126 17.6935 21.4966 18.6418C21.0617 19.4408 20.3792 20.0924 19.542 20.5074C18.5487 21 17.2436 21 14.6334 21H7.39174C4.78157 21 3.47649 21 2.48311 20.5074C1.64599 20.0924 0.963441 19.4408 0.528595 18.6418C0.0125732 17.6935 0.0125732 16.4478 0.0125732 13.9563V7.04375Z" fill="black"/>
<path d="M11.0004 2.86377C8.82776 2.86377 8.5551 2.87284 7.7018 2.90991C6.85016 2.94713 6.26884 3.07584 5.76019 3.26468C5.23404 3.45972 4.78772 3.72063 4.34307 4.14525C3.89808 4.5697 3.62475 4.99575 3.41976 5.49784C3.22143 5.98354 3.08644 6.53861 3.0481 7.35125C3.00994 8.16579 2.99994 8.42622 2.99994 10.5001C2.99994 12.574 3.00961 12.8335 3.04827 13.6481C3.08744 14.461 3.22227 15.0159 3.41993 15.5015C3.62442 16.0037 3.89775 16.4298 4.34257 16.8542C4.78705 17.279 5.23337 17.5405 5.75919 17.7356C6.26817 17.9244 6.84966 18.0531 7.70113 18.0904C8.55444 18.1274 8.82693 18.1365 10.9994 18.1365C13.1721 18.1365 13.444 18.1274 14.2973 18.0904C15.1489 18.0531 15.7309 17.9244 16.2399 17.7356C16.7659 17.5405 17.2115 17.279 17.656 16.8542C18.101 16.4298 18.3743 16.0037 18.5793 15.5016C18.776 15.0159 18.911 14.4609 18.951 13.6482C18.9893 12.8337 18.9993 12.574 18.9993 10.5001C18.9993 8.42622 18.9893 8.16595 18.951 7.35141C18.911 6.53845 18.776 5.98354 18.5793 5.498C18.3743 4.99575 18.101 4.5697 17.656 4.14525C17.211 3.72047 16.766 3.45956 16.2394 3.26468C15.7294 3.07584 15.1477 2.94713 14.2961 2.90991C13.4428 2.87284 13.1711 2.86377 10.9979 2.86377H11.0004ZM10.2827 4.23991C10.4957 4.23959 10.7334 4.23991 11.0004 4.23991C13.1363 4.23991 13.3895 4.24722 14.2329 4.28381C15.0129 4.31786 15.4362 4.44227 15.7182 4.54679C16.0915 4.6852 16.3577 4.85066 16.6375 5.11793C16.9175 5.3852 17.0908 5.63975 17.2362 5.99611C17.3457 6.26497 17.4762 6.66906 17.5117 7.41361C17.55 8.21861 17.5583 8.46043 17.5583 10.4984C17.5583 12.5363 17.55 12.7782 17.5117 13.5832C17.476 14.3277 17.3457 14.7318 17.2362 15.0007C17.0912 15.357 16.9175 15.6108 16.6375 15.8779C16.3575 16.1452 16.0917 16.3106 15.7182 16.449C15.4366 16.554 15.0129 16.6781 14.2329 16.7122C13.3896 16.7487 13.1363 16.7567 11.0004 16.7567C8.86426 16.7567 8.6111 16.7487 7.7678 16.7122C6.98782 16.6778 6.5645 16.5534 6.28234 16.4489C5.90902 16.3104 5.64236 16.145 5.36237 15.8777C5.08238 15.6104 4.90905 15.3565 4.76372 15C4.65422 14.7312 4.52373 14.3271 4.48823 13.5825C4.4499 12.7775 4.44223 12.5357 4.44223 10.4965C4.44223 8.45725 4.4499 8.2167 4.48823 7.4117C4.52389 6.66716 4.65422 6.26306 4.76372 5.99388C4.90871 5.63752 5.08238 5.38297 5.36237 5.1157C5.64236 4.84843 5.90902 4.68297 6.28234 4.54425C6.56433 4.43925 6.98782 4.31516 7.7678 4.28095C8.50577 4.24913 8.79176 4.23959 10.2827 4.238V4.23991ZM15.2706 5.50786C14.7406 5.50786 14.3106 5.91784 14.3106 6.42391C14.3106 6.92981 14.7406 7.34027 15.2706 7.34027C15.8006 7.34027 16.2305 6.92981 16.2305 6.42391C16.2305 5.918 15.8006 5.50754 15.2706 5.50754V5.50786ZM11.0004 6.57854C8.7316 6.57854 6.89215 8.33443 6.89215 10.5001C6.89215 12.6658 8.7316 14.4209 11.0004 14.4209C13.2691 14.4209 15.1079 12.6658 15.1079 10.5001C15.1079 8.33443 13.269 6.57854 11.0002 6.57854H11.0004ZM11.0004 7.95468C12.473 7.95468 13.667 9.09425 13.667 10.5001C13.667 11.9059 12.473 13.0456 11.0004 13.0456C9.52758 13.0456 8.33378 11.9059 8.33378 10.5001C8.33378 9.09425 9.52758 7.95468 11.0004 7.95468Z" fill="#FAFAFA"/>
</g>
<defs>
<clipPath id="clip0_2_8287">
<rect width="22" height="21" fill="white"/>
</clipPath>
</defs>
</svg>
