<svg width="60" height="37" viewBox="0 0 60 37" fill="none" xmlns="http://www.w3.org/2000/svg">
<g clip-path="url(#clip0_2_8292)">
<path d="M1.70323 16.8125L2.47842 18.3116L3.25567 16.8125H3.70479L2.67529 18.6828V19.7984H2.2795V18.6828L1.25 16.8125H1.70323Z" fill="black"/>
<path d="M5.98623 17.077L4.99775 19.7984H4.59375L5.73193 16.8125H5.99239L5.98623 17.077ZM6.81475 19.7984L5.82422 17.077L5.81806 16.8125H6.07852L7.2208 19.7984H6.81475ZM6.76348 18.693V19.017H5.08594V18.693H6.76348Z" fill="black"/>
<path d="M9.00515 16.8125V19.7984H8.60938V16.8125H9.00515ZM10.8078 16.8125L9.56705 18.2049L8.86978 18.9289L8.80415 18.5064L9.32915 17.9281L10.332 16.8125H10.8078ZM10.4263 19.7984L9.32097 18.3423L9.55685 18.0286L10.898 19.7984H10.4263Z" fill="black"/>
<path d="M14.4639 18.2092V18.3979C14.4639 18.622 14.4359 18.823 14.3798 19.0008C14.3238 19.1785 14.2431 19.3296 14.1378 19.454C14.0326 19.5784 13.9061 19.6735 13.7585 19.7391C13.6121 19.8047 13.4481 19.8375 13.2663 19.8375C13.0899 19.8375 12.9279 19.8047 12.7802 19.7391C12.6339 19.6735 12.5068 19.5784 12.3988 19.454C12.2921 19.3296 12.2094 19.1785 12.1506 19.0008C12.0918 18.823 12.0625 18.622 12.0625 18.3979V18.2092C12.0625 17.985 12.0911 17.7847 12.1486 17.6083C12.2074 17.4306 12.2901 17.2795 12.3968 17.1551C12.5034 17.0293 12.6299 16.9336 12.7761 16.8679C12.9238 16.8023 13.0858 16.7695 13.2622 16.7695C13.444 16.7695 13.6081 16.8023 13.7543 16.8679C13.902 16.9336 14.0285 17.0293 14.1338 17.1551C14.2404 17.2795 14.3217 17.4306 14.3778 17.6083C14.4352 17.7847 14.4639 17.985 14.4639 18.2092ZM14.0722 18.3979V18.2051C14.0722 18.0274 14.0538 17.8701 14.0168 17.7334C13.9813 17.5967 13.9287 17.4818 13.859 17.3889C13.7892 17.2959 13.7038 17.2255 13.6026 17.1776C13.5028 17.1298 13.3893 17.1058 13.2622 17.1058C13.1391 17.1058 13.0277 17.1298 12.9279 17.1776C12.8295 17.2255 12.7447 17.2959 12.6736 17.3889C12.6038 17.4818 12.5498 17.5967 12.5116 17.7334C12.4733 17.8701 12.4542 18.0274 12.4542 18.2051V18.3979C12.4542 18.577 12.4733 18.7355 12.5116 18.8737C12.5498 19.0103 12.6045 19.1259 12.6756 19.2202C12.7481 19.3132 12.8336 19.3836 12.932 19.4314C13.0318 19.4793 13.1433 19.5032 13.2663 19.5032C13.3948 19.5032 13.509 19.4793 13.6088 19.4314C13.7085 19.3836 13.7927 19.3132 13.861 19.2202C13.9307 19.1259 13.9834 19.0103 14.0189 18.8737C14.0544 18.7355 14.0722 18.577 14.0722 18.3979Z" fill="black"/>
<path d="M16.9697 19.3452L17.8495 16.8125H18.2781L17.1727 19.7984H16.8672L16.9697 19.3452ZM16.1474 16.8125L17.0189 19.3452L17.1276 19.7984H16.8221L15.7188 16.8125H16.1474Z" fill="black"/>
<path d="M23.8499 18.3097V19.4027C23.813 19.4574 23.7542 19.519 23.6736 19.5873C23.5929 19.6543 23.4814 19.7131 23.3393 19.7637C23.1984 19.8129 23.0166 19.8375 22.7937 19.8375C22.6119 19.8375 22.4445 19.8061 22.2913 19.7431C22.1396 19.6789 22.0076 19.5859 21.8955 19.4643C21.7848 19.3412 21.6987 19.1922 21.6371 19.0172C21.577 18.8408 21.5469 18.6412 21.5469 18.4183V18.1866C21.5469 17.9638 21.5729 17.7649 21.6248 17.5898C21.6781 17.4148 21.7561 17.2665 21.8586 17.1448C21.9612 17.0218 22.0869 16.9288 22.236 16.8659C22.385 16.8016 22.5558 16.7695 22.7487 16.7695C22.977 16.7695 23.1677 16.8092 23.3208 16.8885C23.4753 16.9664 23.5956 17.0744 23.6817 17.2125C23.7693 17.3506 23.8253 17.5078 23.8499 17.6842H23.4541C23.4363 17.5762 23.4008 17.4778 23.3475 17.3889C23.2955 17.3 23.221 17.2289 23.124 17.1756C23.0268 17.1209 22.9017 17.0935 22.7487 17.0935C22.6106 17.0935 22.4909 17.1188 22.3898 17.1694C22.2886 17.22 22.2052 17.2925 22.1396 17.3868C22.074 17.4811 22.0247 17.5953 21.9919 17.7293C21.9605 17.8633 21.9447 18.0144 21.9447 18.1825V18.4183C21.9447 18.5906 21.9645 18.7444 22.0042 18.8798C22.0452 19.0151 22.1033 19.1307 22.1785 19.2264C22.2537 19.3207 22.3433 19.3925 22.4472 19.4417C22.5525 19.4909 22.6686 19.5155 22.7958 19.5155C22.9366 19.5155 23.0508 19.5039 23.1383 19.4806C23.2258 19.456 23.2942 19.4273 23.3434 19.3945C23.3926 19.3603 23.4302 19.3282 23.4561 19.2982V18.6296H22.765V18.3097H23.8499Z" fill="black"/>
<path d="M27.4751 19.4764V19.7984H25.8939V19.4764H27.4751ZM25.974 16.8125V19.7984H25.5781V16.8125H25.974ZM27.2659 18.0963V18.4183H25.8939V18.0963H27.2659ZM27.4546 16.8125V17.1365H25.8939V16.8125H27.4546Z" fill="black"/>
<path d="M29.2422 16.8125H30.2307C30.4549 16.8125 30.6442 16.8466 30.7987 16.915C30.9546 16.9833 31.0729 17.0845 31.1536 17.2186C31.2355 17.3512 31.2766 17.5145 31.2766 17.7087C31.2766 17.8454 31.2486 17.9705 31.1925 18.084C31.1378 18.1961 31.0585 18.2918 30.9546 18.3711C30.8521 18.449 30.7291 18.5071 30.5855 18.5454L30.4747 18.5884H29.5457L29.5417 18.2665H30.243C30.3852 18.2665 30.5035 18.2418 30.5978 18.1926C30.6921 18.1421 30.7632 18.0744 30.811 17.9896C30.8589 17.9049 30.8828 17.8112 30.8828 17.7087C30.8828 17.5938 30.8603 17.4934 30.8152 17.4072C30.77 17.3211 30.699 17.2548 30.6019 17.2083C30.5062 17.1604 30.3824 17.1365 30.2307 17.1365H29.638V19.7984H29.2422V16.8125ZM30.9874 19.7984L30.2614 18.4449L30.6736 18.4428L31.4099 19.7738V19.7984H30.9874Z" fill="black"/>
<path d="M34.4906 19.0418C34.4906 18.9721 34.4797 18.9106 34.4578 18.8572C34.4373 18.8026 34.4004 18.7533 34.3471 18.7096C34.2951 18.6658 34.2227 18.6241 34.1297 18.5845C34.0381 18.5448 33.9219 18.5045 33.7811 18.4635C33.6334 18.4197 33.5001 18.3712 33.3812 18.3178C33.2622 18.2632 33.1604 18.201 33.0756 18.1312C32.9909 18.0615 32.9259 17.9815 32.8808 17.8913C32.8357 17.8011 32.8131 17.6978 32.8131 17.5816C32.8131 17.4655 32.837 17.3581 32.8849 17.2597C32.9327 17.1613 33.0011 17.0758 33.0899 17.0033C33.1802 16.9295 33.2875 16.8721 33.4119 16.831C33.5363 16.79 33.6751 16.7695 33.8282 16.7695C34.0525 16.7695 34.2425 16.8126 34.3983 16.8988C34.5556 16.9835 34.6752 17.0949 34.7573 17.233C34.8392 17.3697 34.8803 17.516 34.8803 17.6719H34.4865C34.4865 17.5597 34.4626 17.4607 34.4147 17.3745C34.3669 17.287 34.2944 17.2186 34.1974 17.1694C34.1003 17.1188 33.9772 17.0935 33.8282 17.0935C33.6874 17.0935 33.5712 17.1148 33.4796 17.1571C33.388 17.1995 33.3197 17.257 33.2745 17.3294C33.2308 17.4019 33.2089 17.4846 33.2089 17.5775C33.2089 17.6404 33.2219 17.6978 33.2479 17.7498C33.2752 17.8004 33.3169 17.8476 33.373 17.8913C33.4304 17.935 33.5028 17.9754 33.5903 18.0123C33.6792 18.0492 33.7852 18.0847 33.9082 18.1189C34.0778 18.1668 34.224 18.2201 34.3471 18.2789C34.4701 18.3377 34.5713 18.404 34.6506 18.4778C34.7312 18.5503 34.7907 18.633 34.829 18.726C34.8686 18.8176 34.8885 18.9215 34.8885 19.0377C34.8885 19.1593 34.8639 19.2694 34.8146 19.3678C34.7654 19.4663 34.695 19.5504 34.6034 19.6201C34.5119 19.6898 34.4018 19.7438 34.2733 19.7821C34.1461 19.819 34.0039 19.8375 33.8467 19.8375C33.7086 19.8375 33.5726 19.8184 33.4386 19.7801C33.3059 19.7418 33.185 19.6843 33.0756 19.6078C32.9676 19.5313 32.8808 19.4369 32.8151 19.3248C32.7509 19.2113 32.7188 19.0801 32.7188 18.931H33.1125C33.1125 19.0336 33.1323 19.1218 33.172 19.1956C33.2116 19.2681 33.2657 19.3282 33.334 19.3761C33.4037 19.4239 33.4823 19.4595 33.5699 19.4827C33.6587 19.5046 33.751 19.5155 33.8467 19.5155C33.9848 19.5155 34.1017 19.4964 34.1974 19.4581C34.2931 19.4198 34.3655 19.3651 34.4147 19.294C34.4654 19.2229 34.4906 19.1389 34.4906 19.0418Z" fill="black"/>
<path d="M38.4191 18.0963V18.4183H36.803V18.0963H38.4191ZM36.8646 16.8125V19.7984H36.4688V16.8125H36.8646ZM38.7636 16.8125V19.7984H38.3699V16.8125H38.7636Z" fill="black"/>
<path d="M40.927 16.8125V19.7984H40.5312V16.8125H40.927ZM42.7297 16.8125L41.4889 18.2049L40.7916 18.9289L40.726 18.5064L41.251 17.9281L42.2539 16.8125H42.7297ZM42.3482 19.7984L41.2428 18.3423L41.4787 18.0286L42.8199 19.7984H42.3482Z" fill="black"/>
<path d="M46.4796 18.2092V18.3979C46.4796 18.622 46.4515 18.823 46.3955 19.0008C46.3395 19.1785 46.2588 19.3296 46.1535 19.454C46.0482 19.5784 45.9218 19.6735 45.7741 19.7391C45.6278 19.8047 45.4638 19.8375 45.2819 19.8375C45.1056 19.8375 44.9436 19.8047 44.7959 19.7391C44.6496 19.6735 44.5224 19.5784 44.4144 19.454C44.3078 19.3296 44.2251 19.1785 44.1663 19.0008C44.1075 18.823 44.0781 18.622 44.0781 18.3979V18.2092C44.0781 17.985 44.1068 17.7847 44.1642 17.6083C44.223 17.4306 44.3058 17.2795 44.4124 17.1551C44.5191 17.0293 44.6455 16.9336 44.7918 16.8679C44.9394 16.8023 45.1014 16.7695 45.2778 16.7695C45.4596 16.7695 45.6237 16.8023 45.77 16.8679C45.9177 16.9336 46.0441 17.0293 46.1494 17.1551C46.2561 17.2795 46.3374 17.4306 46.3935 17.6083C46.4508 17.7847 46.4796 17.985 46.4796 18.2092ZM46.0878 18.3979V18.2051C46.0878 18.0274 46.0694 17.8701 46.0325 17.7334C45.9969 17.5967 45.9443 17.4818 45.8746 17.3889C45.8049 17.2959 45.7194 17.2255 45.6183 17.1776C45.5184 17.1298 45.405 17.1058 45.2778 17.1058C45.1548 17.1058 45.0433 17.1298 44.9436 17.1776C44.8451 17.2255 44.7603 17.2959 44.6892 17.3889C44.6195 17.4818 44.5655 17.5967 44.5272 17.7334C44.4889 17.8701 44.4698 18.0274 44.4698 18.2051V18.3979C44.4698 18.577 44.4889 18.7355 44.5272 18.8737C44.5655 19.0103 44.6202 19.1259 44.6913 19.2202C44.7638 19.3132 44.8492 19.3836 44.9476 19.4314C45.0474 19.4793 45.1589 19.5032 45.2819 19.5032C45.4104 19.5032 45.5246 19.4793 45.6244 19.4314C45.7242 19.3836 45.8083 19.3132 45.8766 19.2202C45.9464 19.1259 45.999 19.0103 46.0346 18.8737C46.0701 18.7355 46.0878 18.577 46.0878 18.3979Z" fill="black"/>
<path d="M49.1026 19.3452L49.9824 16.8125H50.4109L49.3056 19.7984H49L49.1026 19.3452ZM48.2802 16.8125L49.1518 19.3452L49.2605 19.7984H48.9549L47.8516 16.8125H48.2802Z" fill="black"/>
<path d="M52.0989 16.8125V19.7984H51.7031V16.8125H52.0989Z" fill="black"/>
<path d="M55.6922 18.847H56.0859C56.0654 19.0357 56.0114 19.2045 55.9239 19.3535C55.8364 19.5025 55.7127 19.6208 55.5527 19.7083C55.3928 19.7944 55.1931 19.8375 54.9539 19.8375C54.7789 19.8375 54.6196 19.8047 54.4761 19.7391C54.3339 19.6735 54.2115 19.5805 54.1089 19.4602C54.0064 19.3384 53.9271 19.1929 53.871 19.0234C53.8164 18.8524 53.7891 18.6624 53.7891 18.4532V18.1558C53.7891 17.9467 53.8164 17.7573 53.871 17.5878C53.9271 17.4169 54.0071 17.2706 54.111 17.1489C54.2163 17.0272 54.3428 16.9336 54.4904 16.8679C54.6381 16.8023 54.8042 16.7695 54.9888 16.7695C55.2144 16.7695 55.4051 16.8119 55.5609 16.8967C55.7168 16.9814 55.8378 17.099 55.9239 17.2494C56.0114 17.3984 56.0654 17.5714 56.0859 17.7682H55.6922C55.6731 17.6288 55.6375 17.5092 55.5855 17.4094C55.5336 17.3082 55.4598 17.2303 55.3641 17.1756C55.2684 17.1209 55.1433 17.0935 54.9888 17.0935C54.8562 17.0935 54.7392 17.1188 54.6381 17.1694C54.5382 17.22 54.4542 17.2918 54.3858 17.3848C54.3189 17.4778 54.2682 17.5891 54.234 17.719C54.1999 17.8489 54.1828 17.9932 54.1828 18.1518V18.4532C54.1828 18.5995 54.1978 18.7369 54.2279 18.8654C54.2594 18.994 54.3065 19.1068 54.3694 19.2038C54.4323 19.3009 54.5123 19.3774 54.6093 19.4335C54.7065 19.4882 54.8213 19.5155 54.9539 19.5155C55.122 19.5155 55.2561 19.4889 55.3558 19.4356C55.4556 19.3822 55.5309 19.3057 55.5814 19.2058C55.6334 19.1061 55.6703 18.9864 55.6922 18.847Z" fill="black"/>
<path d="M59.6534 18.0963V18.4183H58.0374V18.0963H59.6534ZM58.0989 16.8125V19.7984H57.7031V16.8125H58.0989ZM59.998 16.8125V19.7984H59.6042V16.8125H59.998Z" fill="black"/>
<path d="M0.613587 0.634766H0.046875V1.71882L0.512041 1.73773C1.35098 2.14283 1.76138 2.52664 2.36283 3.55232L8.13475 14.0625H12.8951L8.21695 5.14793C7.75442 4.34379 7.67582 3.54466 7.76792 3.22595C8.17285 1.82528 9.83612 1.71383 11.1955 1.71383V0.64598H10.5464L10.4535 0.737804H0.69602L0.613587 0.634766Z" fill="black"/>
<path d="M23.2354 7.38192L19.8984 14.0205H21.1038L25.5538 5.18438C26.6396 3.13546 27.3653 2.29428 28.9898 1.66299V0.676529H28.4494L28.3726 0.753375H20.3533L20.199 0.660156H19.6875V1.68111H20.0557L20.3533 1.74707L21.3563 1.78637C24.5885 2.38349 24.4603 4.15265 23.2354 7.38192Z" fill="black"/>
<path d="M45.107 1.02032C39.7549 1.52702 36.5564 7.38574 35.7331 13.9728H31.0781C32.2594 6.40507 37.6624 0.0195312 46.2013 0.0195312H46.7297C50.229 0.0919203 52.2557 0.908898 55.9767 3.6396C56.1532 3.69496 56.2612 3.69496 56.3642 3.69496C56.9428 3.69496 57.4667 2.08814 57.3922 0.656751H58.6505V2.00539L58.461 2.26929V6.17659L58.385 6.3456V11.9608H57.2599C56.8486 5.46737 53.4085 1.76754 47.8068 0.969528C46.7048 0.911268 46.1255 0.941801 45.107 1.02032Z" fill="black"/>
<path d="M12.7888 31.7868V23.582H17.3983V31.7868C17.6499 33.6484 18.3048 34.2437 20.5176 34.395H21.3434V35.4453H19.6471L19.3543 35.3325H10.8329L10.54 35.4453H8.84375V34.395H9.66942C11.8823 34.2437 12.5373 33.6484 12.7888 31.7868Z" fill="black"/>
<path d="M35.8835 23.5742H31.1719C32.1731 30.6262 36.9048 35.4194 45.3608 36.1052H47.3285C50.5337 35.9269 52.2752 35.1328 55.3116 32.8431C55.5737 32.6307 55.7252 32.5825 56.0015 32.5937C56.8442 32.7656 57.2103 33.7083 57.3359 35.4194H58.2866V24.4849L58.4151 24.3846V23.6149H53.4583V24.2321L53.585 24.3638L53.7383 26.0632V31.3374C53.5859 34.0045 49.4456 35.3507 46.4991 35.0713C39.5139 34.9189 36.7238 30.0381 35.8835 23.5742Z" fill="black"/>
</g>
<defs>
<clipPath id="clip0_2_8292">
<rect width="60" height="36.15" fill="white"/>
</clipPath>
</defs>
</svg>
