<svg width="20" height="21" viewBox="0 0 20 21" fill="none" xmlns="http://www.w3.org/2000/svg">
<path d="M0 7.04375C0 4.55223 0 3.30647 0.469111 2.35824C0.864425 1.55917 1.48493 0.907647 2.24594 0.492566C3.14902 0 4.33546 0 6.70833 0H13.2917C15.6645 0 16.851 0 17.7541 0.492566C18.5151 0.907647 19.1356 1.55917 19.5309 2.35824C20 3.30647 20 4.55223 20 7.04375V13.9563C20 16.4478 20 17.6935 19.5309 18.6418C19.1356 19.4408 18.5151 20.0924 17.7541 20.5074C16.851 21 15.6645 21 13.2917 21H6.70833C4.33546 21 3.14902 21 2.24594 20.5074C1.48493 20.0924 0.864425 19.4408 0.469111 18.6418C0 17.6935 0 16.4478 0 13.9563V7.04375Z" fill="black"/>
<path d="M10.9664 3.13191C9.27184 2.88715 7.55014 3.29444 6.11924 4.27856C4.68834 5.26269 3.64487 6.75719 3.18152 8.48611C2.71817 10.215 2.86623 12.0616 3.59836 13.6848C4.33048 15.3081 5.59723 16.5983 7.16469 17.3174C7.12231 16.7462 7.16121 16.1715 7.28013 15.6123C7.41115 14.9884 8.19799 11.5498 8.19799 11.5498C8.04131 11.181 7.963 10.7809 7.96852 10.3771C7.96852 9.27282 8.57547 8.44888 9.33043 8.44888C9.46606 8.4468 9.60052 8.47542 9.72468 8.53278C9.84883 8.59014 9.95977 8.6749 10.0499 8.78129C10.1401 8.88769 10.2074 9.01323 10.2473 9.14937C10.2871 9.28551 10.2986 9.42906 10.2809 9.57027C10.2809 10.2395 9.87151 11.2524 9.65763 12.2027C9.61536 12.377 9.61268 12.5593 9.6498 12.7349C9.68692 12.9105 9.7628 13.0744 9.87134 13.2136C9.97987 13.3527 10.118 13.4631 10.2747 13.5359C10.4313 13.6087 10.602 13.6419 10.7731 13.6327C12.1173 13.6327 13.0181 11.825 13.0181 9.69074C13.0181 8.05475 11.9863 6.82925 10.084 6.82925C9.62886 6.81068 9.17489 6.88942 8.74964 7.0607C8.32439 7.23199 7.93673 7.49223 7.6102 7.82563C7.28367 8.15903 7.02507 8.55864 6.85012 9.00018C6.67517 9.44173 6.5875 9.91601 6.59245 10.3942C6.57217 10.9247 6.73516 11.4449 7.05138 11.8592C7.11047 11.9055 7.15361 11.9707 7.17431 12.045C7.195 12.1193 7.19212 12.1987 7.16611 12.2711C7.13353 12.408 7.05138 12.7344 7.0188 12.8541C7.01202 12.8947 6.99626 12.9331 6.97278 12.9661C6.9493 12.9992 6.91876 13.026 6.88362 13.0443C6.84848 13.0627 6.80972 13.0722 6.77047 13.0719C6.73121 13.0717 6.69255 13.0618 6.65761 13.043C5.67743 12.6311 5.21567 11.4985 5.21567 10.2053C5.21567 8.08821 6.90407 5.55392 10.2823 5.55392C12.9707 5.55392 14.7582 7.61898 14.7582 9.82757C14.7582 12.7344 13.2164 14.92 10.9381 14.92C10.5976 14.9314 10.2598 14.8525 9.95602 14.6905C9.65224 14.5286 9.39226 14.2888 9.20012 13.9934C9.20012 13.9934 8.79077 15.7156 8.71003 16.0413C8.54522 16.6041 8.30203 17.1381 7.98835 17.626C8.64204 17.8342 9.32122 17.9383 10.0039 17.9354C10.9342 17.9362 11.8556 17.7443 12.7151 17.3706C13.5747 16.997 14.3556 16.4491 15.0132 15.7581C15.6708 15.0672 16.1922 14.2468 16.5474 13.344C16.9026 12.4412 17.0847 11.4737 17.0833 10.4968C17.0824 8.70096 16.4628 6.96607 15.3387 5.6125C14.2147 4.25893 12.6621 3.3781 10.9678 3.13266L10.9664 3.13191Z" fill="#FAFAFA"/>
</svg>
