<svg width="21" height="21" viewBox="0 0 21 21" fill="none" xmlns="http://www.w3.org/2000/svg">
<path d="M0 7.04375C0 4.55223 0 3.30647 0.492566 2.35824C0.907647 1.55917 1.55917 0.907647 2.35824 0.492566C3.30647 0 4.55223 0 7.04375 0H13.9563C16.4478 0 17.6935 0 18.6418 0.492566C19.4408 0.907647 20.0924 1.55917 20.5074 2.35824C21 3.30647 21 4.55223 21 7.04375V13.9563C21 16.4478 21 17.6935 20.5074 18.6418C20.0924 19.4408 19.4408 20.0924 18.6418 20.5074C17.6935 21 16.4478 21 13.9563 21H7.04375C4.55223 21 3.30647 21 2.35824 20.5074C1.55917 20.0924 0.907647 19.4408 0.492566 18.6418C0 17.6935 0 16.4478 0 13.9563V7.04375Z" fill="black"/>
<path d="M6.37155 12.5741C6.45702 11.8665 6.74723 11.4703 7.29412 11.0642C8.07662 10.5142 9.05407 10.8253 9.05407 10.8253V8.97952C9.2917 8.97345 9.52943 8.98753 9.76447 9.02161V11.397C9.76447 11.397 8.78731 11.0858 8.00481 11.6362C7.45821 12.042 7.16741 12.4385 7.08224 13.1461C7.07957 13.5303 7.15168 14.0326 7.48373 14.4668C7.40163 14.4248 7.31795 14.3768 7.23269 14.3229C6.50123 13.8318 6.36799 13.0949 6.37155 12.5741ZM13.8004 5.56665C13.2621 4.9768 13.0586 4.38125 12.985 3.96289H13.6621C13.6621 3.96289 13.5271 5.05984 14.5111 6.13859L14.5248 6.1531C14.2596 5.98628 14.0163 5.78937 13.8004 5.56665ZM17.0625 7.23896V9.56654C17.0625 9.56654 16.1984 9.53269 15.5589 9.37001C14.666 9.14249 14.0921 8.79352 14.0921 8.79352C14.0921 8.79352 13.6957 8.54467 13.6636 8.52732V13.3338C13.6636 13.6014 13.5903 14.2698 13.3669 14.8272C13.0752 15.5564 12.625 16.0351 12.5422 16.1329C12.5422 16.1329 11.9948 16.7799 11.0289 17.2156C10.1582 17.6087 9.39384 17.5987 9.16535 17.6087C9.16535 17.6087 7.84397 17.661 6.65494 16.8883C6.39782 16.718 6.15781 16.5251 5.93802 16.3121L5.94395 16.3163C7.13328 17.0891 8.45437 17.0367 8.45437 17.0367C8.68315 17.0268 9.44755 17.0367 10.3179 16.6437C11.2829 16.208 11.8313 15.561 11.8313 15.561C11.9132 15.4631 12.3654 14.9845 12.6559 14.255C12.8787 13.6978 12.9526 13.0292 12.9526 12.7615V7.95566C12.9847 7.9733 13.3808 8.22215 13.3808 8.22215C13.3808 8.22215 13.955 8.5714 14.8479 8.79864C15.4877 8.96132 16.3515 8.99516 16.3515 8.99516V7.17127C16.647 7.23754 16.899 7.25546 17.0625 7.23896Z" fill="#FD355A"/>
<path d="M16.3518 7.17127V8.9946C16.3518 8.9946 15.488 8.96075 14.8482 8.79807C13.9553 8.57055 13.3811 8.22158 13.3811 8.22158C13.3811 8.22158 12.985 7.97273 12.9529 7.95509V12.7621C12.9529 13.0297 12.8796 13.6984 12.6562 14.2555C12.3645 14.985 11.9144 15.4637 11.8316 15.5615C11.8316 15.5615 11.2838 16.2085 10.3182 16.6443C9.44786 17.0373 8.68346 17.0273 8.45467 17.0373C8.45467 17.0373 7.13359 17.0896 5.94426 16.3169L5.93833 16.3126C5.81276 16.1911 5.69456 16.0627 5.58432 15.9281C5.20479 15.4654 4.97214 14.9182 4.91369 14.7621C4.91359 14.7614 4.91359 14.7607 4.91369 14.7601C4.81962 14.4887 4.62199 13.8372 4.649 13.2061C4.69677 12.0926 5.08847 11.4092 5.19203 11.238C5.4663 10.7711 5.82303 10.3534 6.24634 10.0034C6.61989 9.70138 7.04328 9.46109 7.49917 9.29237C7.99201 9.09427 8.51974 8.98809 9.05409 8.97952V10.8253C9.05409 10.8253 8.07663 10.5153 7.29442 11.0642C6.74753 11.4703 6.45732 11.8665 6.37186 12.5741C6.3683 13.0949 6.50154 13.8318 7.23241 14.3232C7.31767 14.3773 7.40135 14.4252 7.48345 14.4671C7.61113 14.6331 7.76654 14.7777 7.94339 14.8952C8.65735 15.3471 9.25557 15.3786 10.0206 15.0851C10.5307 14.8889 10.9146 14.4467 11.0927 13.9566C11.2046 13.6506 11.2031 13.3426 11.2031 13.0241V3.96289H12.9835C13.0571 4.38125 13.2607 4.9768 13.7989 5.56665C14.0149 5.78937 14.2581 5.98628 14.5233 6.1531C14.6016 6.23415 15.0022 6.63488 15.5165 6.88089C15.7824 7.00806 16.0627 7.10549 16.3518 7.17127Z" fill="#FAFAFA"/>
<path d="M4.20508 14.1953V14.1967L4.24926 14.3165C4.24418 14.3025 4.22776 14.2602 4.20508 14.1953Z" fill="#33F3ED"/>
<path d="M7.4992 9.29223C7.04331 9.46095 6.61991 9.70124 6.24636 10.0032C5.82292 10.354 5.46628 10.7726 5.19235 11.2404C5.08879 11.4111 4.69709 12.095 4.64932 13.2085C4.62231 13.8396 4.81994 14.4912 4.91401 14.7625C4.91391 14.7631 4.91391 14.7638 4.91401 14.7645C4.97335 14.9192 5.20511 15.4664 5.58464 15.9305C5.69488 16.0651 5.81308 16.1935 5.93865 16.3151C5.53633 16.0484 5.17752 15.7259 4.87395 15.3583C4.49768 14.8996 4.26563 14.3581 4.2051 14.1982C4.20503 14.1971 4.20503 14.1959 4.2051 14.1948V14.1928C4.11073 13.9218 3.91251 13.2699 3.94011 12.638C3.98789 11.5245 4.37958 10.8411 4.48314 10.6699C4.75699 10.2021 5.11365 9.78343 5.53716 9.43273C5.91063 9.13062 6.33404 8.89032 6.78999 8.72171C7.07439 8.60862 7.37066 8.52519 7.67368 8.47286C8.13035 8.39645 8.59676 8.38983 9.05559 8.45323V8.97938C8.52075 8.98777 7.99249 9.09395 7.4992 9.29223Z" fill="#33F3ED"/>
<path d="M12.985 3.96285H11.2045V13.0243C11.2045 13.3428 11.2045 13.65 11.0942 13.9569C10.9143 14.4466 10.5318 14.8889 10.022 15.0851C9.25675 15.3797 8.65852 15.347 7.94487 14.8951C7.76771 14.7782 7.6119 14.6341 7.48373 14.4685C8.09175 14.7794 8.63597 14.774 9.31016 14.5146C9.81966 14.3183 10.2028 13.8761 10.382 13.3861C10.4942 13.08 10.4927 12.772 10.4927 12.4538V3.39062H12.9511C12.9511 3.39062 12.9236 3.61587 12.985 3.96285ZM16.3518 6.66698V7.17123C16.0632 7.10534 15.7834 7.00791 15.5179 6.88085C15.0037 6.63484 14.6031 6.23411 14.5248 6.15306C14.6157 6.21026 14.71 6.2623 14.8073 6.30891C15.4325 6.60811 16.0482 6.69741 16.3518 6.66698Z" fill="#33F3ED"/>
</svg>
