<svg width="22" height="21" viewBox="0 0 22 21" fill="none" xmlns="http://www.w3.org/2000/svg">
<path d="M0 7.04375C0 4.55223 0 3.30647 0.516022 2.35824C0.950868 1.55917 1.63342 0.907647 2.47053 0.492566C3.46392 0 4.769 0 7.37917 0H14.6208C17.231 0 18.5361 0 19.5295 0.492566C20.3666 0.907647 21.0491 1.55917 21.484 2.35824C22 3.30647 22 4.55223 22 7.04375V13.9563C22 16.4478 22 17.6935 21.484 18.6418C21.0491 19.4408 20.3666 20.0924 19.5295 20.5074C18.5361 21 17.231 21 14.6208 21H7.37917C4.769 21 3.46392 21 2.47053 20.5074C1.63342 20.0924 0.950868 19.4408 0.516022 18.6418C0 17.6935 0 16.4478 0 13.9563V7.04375Z" fill="black"/>
<path fill-rule="evenodd" clip-rule="evenodd" d="M17.1063 7.94172C17.1117 8.07288 17.1135 8.20399 17.1135 8.33516C17.1135 12.3118 14.1829 16.9026 8.82383 16.9026C7.17763 16.9026 5.6469 16.4018 4.35718 15.5492C4.58516 15.5731 4.8167 15.591 5.05178 15.591C6.41671 15.591 7.67386 15.108 8.67105 14.2972C7.39614 14.2793 6.3196 13.4029 5.94831 12.2105C6.12655 12.2462 6.31011 12.2642 6.49782 12.2642C6.76252 12.2642 7.01951 12.2284 7.26585 12.1569C5.93172 11.8826 4.92684 10.6664 4.92684 9.20573C4.92684 9.18784 4.92684 9.18185 4.92684 9.16992C5.32003 9.39052 5.77006 9.52757 6.24794 9.54546C5.4651 9.00292 4.95051 8.07883 4.95051 7.03548C4.95051 6.48698 5.09381 5.96826 5.34607 5.52111C6.78265 7.34548 8.93042 8.54386 11.3518 8.66906C11.302 8.44847 11.2765 8.21601 11.2765 7.98349C11.2765 6.3201 12.5811 4.97266 14.1906 4.97266C15.0285 4.97266 15.7852 5.33639 16.3164 5.92067C16.9814 5.7895 17.6044 5.53912 18.1681 5.19332C17.9496 5.89684 17.4883 6.48695 16.8855 6.85659C17.4753 6.78505 18.0378 6.6242 18.5595 6.38572C18.1681 6.98788 17.6754 7.51842 17.1063 7.94172Z" fill="#FAFAFA"/>
</svg>
