<svg width="22" height="21" viewBox="0 0 22 21" fill="none" xmlns="http://www.w3.org/2000/svg">
<path d="M0 7.04375C0 4.55223 0 3.30647 0.516022 2.35824C0.950868 1.55917 1.63342 0.907647 2.47053 0.492566C3.46392 0 4.769 0 7.37917 0H14.6208C17.231 0 18.5361 0 19.5295 0.492566C20.3666 0.907647 21.0491 1.55917 21.484 2.35824C22 3.30647 22 4.55223 22 7.04375V13.9563C22 16.4478 22 17.6935 21.484 18.6418C21.0491 19.4408 20.3666 20.0924 19.5295 20.5074C18.5361 21 17.231 21 14.6208 21H7.37917C4.769 21 3.46392 21 2.47053 20.5074C1.63342 20.0924 0.950868 19.4408 0.516022 18.6418C0 17.6935 0 16.4478 0 13.9563V7.04375Z" fill="black"/>
<path fill-rule="evenodd" clip-rule="evenodd" d="M17.4559 5.14981C18.1626 5.33144 18.7199 5.86336 18.9101 6.53799C19.2635 7.77048 19.2499 10.3392 19.2499 10.3392C19.2499 10.3392 19.2499 12.895 18.9101 14.1275C18.7199 14.8022 18.1626 15.3341 17.4559 15.5157C16.1647 15.84 11 15.84 11 15.84C11 15.84 5.84883 15.84 4.54406 15.5027C3.83731 15.3211 3.28006 14.7892 3.08978 14.1146C2.75 12.895 2.75 10.3263 2.75 10.3263C2.75 10.3263 2.75 7.77048 3.08978 6.53799C3.28006 5.86336 3.8509 5.31847 4.54406 5.13684C5.83524 4.8125 11 4.8125 11 4.8125C11 4.8125 16.1647 4.8125 17.4559 5.14981ZM13.6503 10.2362L9.3554 12.5974V7.875L13.6503 10.2362Z" fill="#FAFAFA"/>
</svg>
